<?xml version="1.0" encoding="UTF-8" standalone="no"?>
<!-- Created with Inkscape (http://www.inkscape.org/) -->

<svg
   inkscape:version="1.1 (1:1.1+202105261517+ce6663b3b7)"
   sodipodi:docname="cache-icon-alternating.svg"
   id="svg5465"
   version="1.1"
   viewBox="0 0 40.0 25.0"
   height="25.0mm"
   width="40.0mm"
   xmlns:inkscape="http://www.inkscape.org/namespaces/inkscape"
   xmlns:sodipodi="http://sodipodi.sourceforge.net/DTD/sodipodi-0.dtd"
   xmlns="http://www.w3.org/2000/svg"
   xmlns:svg="http://www.w3.org/2000/svg">
  <sodipodi:namedview
     id="namedview5467"
     pagecolor="#ffffff"
     bordercolor="#cccccc"
     borderopacity="1"
     inkscape:pageshadow="0"
     inkscape:pageopacity="1"
     inkscape:pagecheckerboard="0"
     inkscape:document-units="mm"
     showgrid="false"
     inkscape:zoom="8.627257"
     inkscape:cx="74.936912"
     inkscape:cy="50.827279"
     inkscape:window-width="1842"
     inkscape:window-height="1402"
     inkscape:window-x="959"
     inkscape:window-y="145"
     inkscape:window-maximized="1"
     inkscape:current-layer="g22551"
     showguides="true"
     inkscape:guide-bbox="true" />
  <defs
     id="defs5462" />
  <g
     inkscape:label="[fixed] BG"
     inkscape:groupmode="layer"
     sodipodi:insensitive="true"
     id="g22539"
     style="display:none">
    <rect
       x="0"
       y="0"
       width="20"
       height="20"
       style="fill:#ffffff;fill-opacity:1;stroke:none"
       id="rect22537" />
  </g>
  <g
     inkscape:label="F.Cu"
     inkscape:groupmode="layer"
     id="g22547"
     style="display:inline">
    <g
       transform="matrix(0.58730439,0.55433961,0.58730439,-0.55433961,29.394694,15.857253)"
       id="g23969"
       style="fill:#ff9955" />
    <g
       transform="matrix(0.99236555,0.93665277,0.99236555,-0.93665277,19.777198,3.396824)"
       id="g23973"
       style="fill:#ff9955">
      <path
         inkscape:connector-curvature="0"
         id="path23971"
         style="fill:#ff9955;fill-opacity:1;fill-rule:nonzero;stroke:none"
         d="m 0,0 -3.91,-3.907 0.883,-0.883 3.031,3.028 v 1.759" />
    </g>
    <g
       transform="matrix(0.99236555,0.93665277,0.99236555,-0.93665277,12.01949,9.3121478)"
       id="g23977"
       style="fill:#ff9955">
      <path
         inkscape:connector-curvature="0"
         id="path23975"
         style="fill:#ff9955;fill-opacity:1;fill-rule:nonzero;stroke:none"
         d="m 0,0 -2.277,2.275 0.001,10e-4 -0.883,0.883 -0.885,-0.884 4.795,-4.792 0.004,0.004 v 1.758 z" />
    </g>
    <g
       transform="matrix(-0.99236555,-0.93665277,0.99236555,-0.93665277,22.513748,5.9853357)"
       id="g23981"
       style="fill:#ff9955">
      <path
         id="path23979"
         style="fill:#ff9955;fill-opacity:1;fill-rule:nonzero;stroke:none;stroke-width:4.4069"
         d="m 60.076172,53.511719 -5.673828,0.0078 -19.435547,0.0039 -0.01172,0.01172 5.654297,5.337891 19.458984,-0.0039 z m -30.748047,5.355469 v 0.0078 h 0.0078 z"
         transform="matrix(0.15588626,-0.15588626,0.1651563,0.1651563,-14.290608,-5.1477119)" />
    </g>
    <path
       style="fill:#ff9955;stroke-width:2.96373"
       d="m 14.756428,13.30715 -2.73354,-2.580078 -1.748066,1.649927 2.733543,2.580076 z"
       id="path23987" />
    <g
       transform="matrix(-0.99236555,-0.93665277,0.99236555,-0.93665277,14.755442,7.6338559)"
       id="g27650"
       style="fill:#ff9955">
      <path
         id="path27648"
         style="fill:#ff9955;fill-opacity:1;fill-rule:nonzero;stroke:none;stroke-width:4.4069"
         d="m 60.060547,29.859375 0.0078,0.0078 v -0.0059 z m -5.662109,5.324219 0.0039,18.335937 5.673828,-0.0078 -0.0039,-12.97461 z"
         transform="matrix(0.15588626,-0.15588626,0.1651563,0.1651563,-17.319608,-0.35871189)" />
    </g>
    <rect
       y="-11.123331"
       x="16.072104"
       height="2.3989899"
       id="rect27652"
       style="fill:#ff9955;fill-opacity:1;stroke-width:2.96956"
       transform="matrix(0.72722576,0.68639835,-0.72722576,0.68639835,0,0)"
       width="3.7746601" />
    <g
       transform="matrix(-0.99236555,-0.93665277,-0.99236555,0.93665277,15.75118,17.539225)"
       id="g14705"
       style="fill:#ff9955">
      <path
         inkscape:connector-curvature="0"
         id="path14703"
         style="fill:#ff9955;fill-opacity:1;fill-rule:nonzero;stroke:none"
         d="m 0,0 -3.91,-3.907 0.883,-0.883 3.031,3.028 v 1.759" />
    </g>
    <path
       inkscape:connector-curvature="0"
       id="path14707"
       style="fill:#ff9955;fill-opacity:1;fill-rule:nonzero;stroke:none;stroke-width:1.36345"
       d="m 23.508498,11.624263 0.002,4.263647 h -0.002 v 1.654128 l 1.755495,9e-4 -0.003,-8.9796877 h -0.0077 L 23.50868,10.209918 Z" />
    <g
       transform="matrix(0.99236555,0.93665277,-0.99236555,0.93665277,13.014635,14.950711)"
       id="g14711"
       style="fill:#ff9955">
      <path
         id="path14709"
         style="fill:#ff9955;fill-opacity:1;fill-rule:nonzero;stroke:none;stroke-width:4.4069"
         d="m 60.076172,53.511719 -5.673828,0.0078 -19.435547,0.0039 -0.01172,0.01172 5.654297,5.337891 19.458984,-0.0039 z m -30.748047,5.355469 v 0.0078 h 0.0078 z"
         transform="matrix(0.15588626,-0.15588626,0.1651563,0.1651563,-14.290608,-5.1477119)" />
    </g>
    <path
       style="fill:#ff9955;stroke-width:2.96373"
       d="m 20.771952,7.6288992 2.73354,2.5800758 1.748064,-1.6499239 -2.733538,-2.5800776 z"
       id="path14713" />
    <path
       id="path14715"
       style="fill:#ff9955;fill-opacity:1;fill-rule:nonzero;stroke:none;stroke-width:1.36345"
       d="m 22.523823,5.9819037 0.0026,0.00263 v -0.0018 z m -1.751813,1.6472512 0.0012,5.6729181 1.755438,-0.0026 -0.0012,-4.0141922 z" />
    <rect
       y="-1.9466414"
       x="-23.605927"
       height="2.3989899"
       id="rect14717"
       style="fill:#ff9955;fill-opacity:1;stroke-width:2.96956"
       transform="matrix(-0.72722575,-0.68639836,0.72722575,-0.68639836,0,0)"
       width="3.7746601" />
    <g
       transform="matrix(0.58730439,0.55433961,0.58730439,-0.55433961,29.394694,15.857253)"
       id="g16832"
       style="fill:#ff9955" />
    <g
       id="g16854"
       transform="matrix(0.70655607,0,0,0.70655607,-0.43510074,3.2307939)"
       style="fill:#ff9955" />
  </g>
  <g
     inkscape:label="F.Mask"
     inkscape:groupmode="layer"
     id="g22549"
     style="display:inline">
    <g
       transform="matrix(0.58730438,0.5543396,0.58730438,-0.5543396,29.394695,15.857253)"
       id="g9605"
       style="display:inline;fill:#ffd42a" />
    <g
       transform="matrix(0.99236555,0.93665277,0.99236555,-0.93665277,19.777196,3.396824)"
       id="g9609"
       style="display:inline;fill:#ffd42a">
      <path
         inkscape:connector-curvature="0"
         id="path9607"
         style="fill:#ffd42a;fill-opacity:1;fill-rule:nonzero;stroke:none"
         d="m 0,0 -3.91,-3.907 0.883,-0.883 3.031,3.028 v 1.759" />
    </g>
    <g
       transform="matrix(-0.99236555,-0.93665277,0.99236555,-0.93665277,22.513743,5.9853357)"
       id="g9617"
       style="display:inline;fill:#ffd42a">
      <path
         id="path9615"
         style="fill:#ffd42a;fill-opacity:1;fill-rule:nonzero;stroke:none;stroke-width:4.4069"
         d="m 60.076172,53.511719 -5.673828,0.0078 -19.435547,0.0039 -0.01172,0.01172 5.654297,5.337891 19.458984,-0.0039 z m -30.748047,5.355469 v 0.0078 h 0.0078 z"
         transform="matrix(0.15588626,-0.15588626,0.1651563,0.1651563,-14.290608,-5.1477119)" />
    </g>
    <path
       style="display:inline;fill:#ffd42a;stroke-width:2.96373"
       d="m 14.756428,13.30715 -2.73354,-2.580078 -1.748066,1.649927 2.733543,2.580076 z"
       id="path9619" />
    <g
       transform="matrix(-0.99236555,-0.93665277,-0.99236555,0.93665277,15.75118,17.539225)"
       id="g9629"
       style="display:inline;fill:#ffd42a">
      <path
         inkscape:connector-curvature="0"
         id="path9627"
         style="fill:#ffd42a;fill-opacity:1;fill-rule:nonzero;stroke:none"
         d="m 0,0 -3.91,-3.907 0.883,-0.883 3.031,3.028 v 1.759" />
    </g>
    <g
       transform="matrix(0.99236555,0.93665277,-0.99236555,0.93665277,13.014635,14.950711)"
       id="g9635"
       style="display:inline;fill:#ffd42a">
      <path
         id="path9633"
         style="fill:#ffd42a;fill-opacity:1;fill-rule:nonzero;stroke:none;stroke-width:4.4069"
         d="m 60.076172,53.511719 -5.673828,0.0078 -19.435547,0.0039 -0.01172,0.01172 5.654297,5.337891 19.458984,-0.0039 z m -30.748047,5.355469 v 0.0078 h 0.0078 z"
         transform="matrix(0.15588626,-0.15588626,0.1651563,0.1651563,-14.290608,-5.1477119)" />
    </g>
    <path
       style="display:inline;fill:#ffd42a;stroke-width:2.96373"
       d="m 20.771952,7.6288992 2.73354,2.5800758 1.748064,-1.6499239 -2.733538,-2.5800776 z"
       id="path9637" />
    <g
       transform="matrix(0.58730438,0.5543396,0.58730438,-0.5543396,29.394695,15.857253)"
       id="g9643"
       style="display:inline;fill:#ffd42a" />
    <g
       id="g9645"
       transform="matrix(0.70655606,0,0,0.70655606,-0.43510073,3.230794)"
       style="display:inline;fill:#ffd42a" />
  </g>
  <g
     inkscape:label="F.SilkS"
     inkscape:groupmode="layer"
     id="g22551"
     style="display:inline">
    <g
       transform="matrix(0.58730438,0.5543396,0.58730438,-0.5543396,29.394695,15.857253)"
       id="g9668"
       style="display:inline;fill:#4d4d4d" />
    <g
       transform="matrix(0.99236555,0.93665277,0.99236555,-0.93665277,12.019488,9.3121478)"
       id="g9676"
       style="display:inline;fill:#4d4d4d">
      <path
         inkscape:connector-curvature="0"
         id="path9674"
         style="fill:#4d4d4d;fill-opacity:1;fill-rule:nonzero;stroke:none"
         d="m 0,0 -2.277,2.275 0.001,10e-4 -0.883,0.883 -0.885,-0.884 4.795,-4.792 0.004,0.004 v 1.758 z" />
    </g>
    <g
       transform="matrix(-0.99236555,-0.93665277,0.99236555,-0.93665277,14.755441,7.6338559)"
       id="g9686"
       style="display:inline;fill:#4d4d4d">
      <path
         id="path9684"
         style="fill:#4d4d4d;fill-opacity:1;fill-rule:nonzero;stroke:none;stroke-width:4.4069"
         d="m 60.060547,29.859375 0.0078,0.0078 v -0.0059 z m -5.662109,5.324219 0.0039,18.335937 5.673828,-0.0078 -0.0039,-12.97461 z"
         transform="matrix(0.15588626,-0.15588626,0.1651563,0.1651563,-17.319608,-0.35871189)" />
    </g>
    <rect
       y="-11.123331"
       x="16.072104"
       height="2.3989899"
       id="rect9688"
       style="display:inline;fill:#4d4d4d;fill-opacity:1;stroke-width:2.96956"
       transform="matrix(0.72722575,0.68639835,-0.72722575,0.68639835,0,0)"
       width="3.7746599" />
    <path
       inkscape:connector-curvature="0"
       id="path9694"
       style="display:inline;fill:#4d4d4d;fill-opacity:1;fill-rule:nonzero;stroke:none;stroke-width:1.36345"
       d="m 23.508498,11.624263 0.002,4.263647 h -0.002 v 1.654128 l 1.755495,9e-4 -0.003,-8.9796877 h -0.0077 L 23.50868,10.209918 Z" />
    <path
       id="path9702"
       style="display:inline;fill:#4d4d4d;fill-opacity:1;fill-rule:nonzero;stroke:none;stroke-width:1.36345"
       d="m 22.523823,5.9819037 0.0026,0.00263 v -0.0018 z m -1.751813,1.6472512 0.0012,5.6729181 1.755438,-0.0026 -0.0012,-4.0141922 z" />
    <rect
       y="-1.9466407"
       x="-23.605925"
       height="2.3989899"
       id="rect9704"
       style="display:inline;fill:#4d4d4d;fill-opacity:1;stroke-width:2.96956"
       transform="matrix(-0.72722575,-0.68639835,0.72722575,-0.68639835,0,0)"
       width="3.7746599" />
    <g
       transform="matrix(0.58730438,0.5543396,0.58730438,-0.5543396,29.394695,15.857253)"
       id="g9706"
       style="display:inline;fill:#4d4d4d" />
    <g
       id="g9708"
       transform="matrix(0.70655606,0,0,0.70655606,-0.43510073,3.230794)"
       style="display:inline;fill:#4d4d4d" />
  </g>
</svg>
