M48
; DRILL file {KiCad 5.99.0-unknown-fa82fcb809~131~ubuntu20.04.1} date Fri Aug 27 12:16:17 2021
; FORMAT={-:-/ absolute / metric / decimal}
; #@! TF.CreationDate,2021-08-27T12:16:17+02:00
; #@! TF.GenerationSoftware,Kicad,Pcbnew,5.99.0-unknown-fa82fcb809~131~ubuntu20.04.1
; #@! TF.FileFunction,NonPlated,1,2,NPTH
FMAT,2
METRIC
; #@! TA.AperFunction,NonPlated,NPTH,ComponentDrill
T1C1.500
; #@! TA.AperFunction,NonPlated,NPTH,ComponentDrill
T2C1.702
; #@! TA.AperFunction,NonPlated,NPTH,ComponentDrill
T3C3.000
; #@! TA.AperFunction,NonPlated,NPTH,ComponentDrill
T4C3.429
%
G90
G05
T1
X47.022Y5.016
X47.022Y-6.234
T2
X-21.869Y29.62
X-21.869Y29.62
X-16.302Y13.452
X-16.302Y13.452
X-11.469Y33.201
X-11.469Y33.201
X-10.735Y-2.717
X-10.735Y-2.717
X-5.902Y17.033
X-5.902Y17.033
X-0.334Y0.864
X-0.334Y0.864
X-0.073Y47.975
X-0.073Y47.975
X4.353Y31.458
X4.353Y31.458
X8.779Y14.94
X8.779Y14.94
X10.552Y50.822
X10.552Y50.822
X14.978Y34.305
X14.978Y34.305
X19.404Y17.787
X19.404Y17.787
X26.195Y54.162
X26.195Y54.162
X27.686Y37.127
X27.686Y37.127
X29.176Y20.092
X29.176Y20.092
X37.153Y55.121
X37.153Y55.121
X38.644Y38.086
X38.644Y38.086
X40.134Y21.051
X40.134Y21.051
X50.822Y53.591
X50.822Y53.591
X50.822Y36.491
X50.822Y36.491
X50.822Y19.391
X50.822Y19.391
X61.822Y53.591
X61.822Y53.591
X61.822Y36.491
X61.822Y36.491
X61.822Y19.391
X61.822Y19.391
X67.009Y-2.186
X67.009Y-2.186
X69.822Y52.591
X69.822Y52.591
X69.822Y35.491
X69.822Y35.491
X69.822Y18.391
X69.822Y18.391
X77.635Y-5.033
X77.635Y-5.033
X80.822Y52.591
X80.822Y52.591
X80.822Y35.491
X80.822Y35.491
X80.822Y18.391
X80.822Y18.391
X86.598Y-8.295
X86.598Y-8.295
X96.567Y-12.944
X96.567Y-12.944
X104.828Y-17.713
X104.828Y-17.713
X113.838Y-24.023
X113.838Y-24.023
T3
X-22.618Y33.328
X-18.606Y37.036
X-18.606Y37.036
X-17.05Y17.16
X-13.162Y36.584
X-13.039Y20.868
X-13.039Y20.868
X-11.483Y0.992
X-7.595Y20.416
X-7.472Y4.7
X-7.472Y4.7
X-2.028Y4.247
X-0.56Y51.727
X3.7Y55.146
X3.7Y55.146
X3.865Y35.209
X8.126Y38.629
X8.126Y38.629
X8.291Y18.692
X9.099Y54.315
X12.551Y22.111
X12.551Y22.111
X13.525Y37.798
X17.95Y21.28
X26.367Y57.941
X27.857Y40.906
X29.347Y23.871
X31.156Y60.569
X31.156Y60.569
X32.646Y43.534
X32.646Y43.534
X34.137Y26.499
X34.137Y26.499
X36.328Y58.813
X37.819Y41.778
X39.309Y24.743
X51.322Y57.341
X51.322Y40.241
X51.322Y23.141
X56.322Y59.541
X56.322Y59.541
X56.322Y42.441
X56.322Y42.441
X56.322Y25.341
X56.322Y25.341
X61.322Y57.341
X61.322Y40.241
X61.322Y23.141
X68.463Y1.307
X70.322Y56.341
X70.322Y39.241
X70.322Y22.141
X73.862Y2.138
X73.862Y2.138
X75.322Y58.541
X75.322Y58.541
X75.322Y41.441
X75.322Y41.441
X75.322Y24.341
X75.322Y24.341
X78.122Y-1.281
X80.322Y56.341
X80.322Y39.241
X80.322Y22.141
X88.636Y-5.108
X94.097Y-5.227
X94.097Y-5.227
X97.699Y-9.334
X107.388Y-14.928
X112.746Y-15.994
X112.746Y-15.994
X115.58Y-20.664
T4
X-16.669Y31.411
X-16.669Y31.411
X-11.102Y15.242
X-11.102Y15.242
X-5.535Y-0.926
X-5.535Y-0.926
X5.24Y49.399
X5.24Y49.399
X9.666Y32.881
X9.666Y32.881
X14.091Y16.364
X14.091Y16.364
X31.674Y54.641
X31.674Y54.641
X33.165Y37.606
X33.165Y37.606
X34.655Y20.571
X34.655Y20.571
X56.322Y53.591
X56.322Y53.591
X56.322Y36.491
X56.322Y36.491
X56.322Y19.391
X56.322Y19.391
X72.322Y-3.609
X72.322Y-3.609
X75.322Y52.591
X75.322Y52.591
X75.322Y35.491
X75.322Y35.491
X75.322Y18.391
X75.322Y18.391
X91.583Y-10.62
X91.583Y-10.62
X109.333Y-20.868
X109.333Y-20.868
T0
M30
