%TF.GenerationSoftware,KiCad,Pcbnew,5.99.0-unknown-fa82fcb809~131~ubuntu20.04.1*%
%TF.CreationDate,2021-08-27T12:31:07+02:00*%
%TF.ProjectId,tuck-n-roll,7475636b-2d6e-42d7-926f-6c6c2e6b6963,VERSION_HERE*%
%TF.SameCoordinates,Original*%
%TF.FileFunction,Soldermask,Bot*%
%TF.FilePolarity,Negative*%
%FSLAX46Y46*%
G04 Gerber Fmt 4.6, Leading zero omitted, Abs format (unit mm)*
G04 Created by KiCad (PCBNEW 5.99.0-unknown-fa82fcb809~131~ubuntu20.04.1) date 2021-08-27 12:31:07*
%MOMM*%
%LPD*%
G01*
G04 APERTURE LIST*
G04 Aperture macros list*
%AMRoundRect*
0 Rectangle with rounded corners*
0 $1 Rounding radius*
0 $2 $3 $4 $5 $6 $7 $8 $9 X,Y pos of 4 corners*
0 Add a 4 corners polygon primitive as box body*
4,1,4,$2,$3,$4,$5,$6,$7,$8,$9,$2,$3,0*
0 Add four circle primitives for the rounded corners*
1,1,$1+$1,$2,$3*
1,1,$1+$1,$4,$5*
1,1,$1+$1,$6,$7*
1,1,$1+$1,$8,$9*
0 Add four rect primitives between the rounded corners*
20,1,$1+$1,$2,$3,$4,$5,0*
20,1,$1+$1,$4,$5,$6,$7,0*
20,1,$1+$1,$6,$7,$8,$9,0*
20,1,$1+$1,$8,$9,$2,$3,0*%
G04 Aperture macros list end*
%ADD10C,0.010000*%
%ADD11C,1.801800*%
%ADD12C,3.529000*%
%ADD13C,2.132000*%
%ADD14C,3.100000*%
%ADD15RoundRect,0.050000X-1.300000X-1.300000X1.300000X-1.300000X1.300000X1.300000X-1.300000X1.300000X0*%
%ADD16RoundRect,0.050000X-0.919239X-1.592168X1.592168X-0.919239X0.919239X1.592168X-1.592168X0.919239X0*%
%ADD17C,1.600000*%
%ADD18C,1.700000*%
%ADD19RoundRect,0.050000X-1.727604X-0.628796X0.628796X-1.727604X1.727604X0.628796X-0.628796X1.727604X0*%
%ADD20RoundRect,0.050000X-0.805936X-1.652413X1.652413X-0.805936X0.805936X1.652413X-1.652413X0.805936X0*%
%ADD21RoundRect,0.050000X0.600000X-0.450000X0.600000X0.450000X-0.600000X0.450000X-0.600000X-0.450000X0*%
%ADD22RoundRect,0.050000X0.713817X-0.230142X0.420805X0.620824X-0.713817X0.230142X-0.420805X-0.620824X0*%
%ADD23RoundRect,0.050000X0.463087X-0.589958X0.696024X0.279375X-0.463087X0.589958X-0.696024X-0.279375X0*%
%ADD24RoundRect,0.050000X0.233382X-0.712764X0.749601X0.024473X-0.233382X0.712764X-0.749601X-0.024473X0*%
%ADD25RoundRect,0.050000X0.636937X-0.395994X0.558497X0.500581X-0.636937X0.395994X-0.558497X-0.500581X0*%
%ADD26RoundRect,0.050000X-1.810547X-0.319248X0.319248X-1.810547X1.810547X0.319248X-0.319248X1.810547X0*%
%ADD27RoundRect,0.050000X0.696024X-0.279375X0.463087X0.589958X-0.696024X0.279375X-0.463087X-0.589958X0*%
%ADD28RoundRect,0.050000X-1.181751X-1.408356X1.408356X-1.181751X1.181751X1.408356X-1.408356X1.181751X0*%
%ADD29RoundRect,0.050000X-1.592168X-0.919239X0.919239X-1.592168X1.592168X0.919239X-0.919239X1.592168X0*%
%ADD30RoundRect,0.050000X0.353606X-0.661409X0.733963X0.154268X-0.353606X0.661409X-0.733963X-0.154268X0*%
%ADD31RoundRect,0.050000X-0.172474X1.227215X-1.227215X-0.172474X0.172474X-1.227215X1.227215X0.172474X0*%
%ADD32C,1.852600*%
G04 APERTURE END LIST*
D10*
%TO.C,G\u002A\u002A\u002A*%
X10869084Y-16478250D02*
X3082600Y-16478250D01*
X3082600Y-16478250D02*
X1726130Y-17758834D01*
X1726130Y-17758834D02*
X1524366Y-17949119D01*
X1524366Y-17949119D02*
X1331270Y-18130860D01*
X1331270Y-18130860D02*
X1149071Y-18301978D01*
X1149071Y-18301978D02*
X980000Y-18460396D01*
X980000Y-18460396D02*
X826286Y-18604039D01*
X826286Y-18604039D02*
X690157Y-18730827D01*
X690157Y-18730827D02*
X573845Y-18838685D01*
X573845Y-18838685D02*
X479579Y-18925535D01*
X479579Y-18925535D02*
X409589Y-18989301D01*
X409589Y-18989301D02*
X366103Y-19027904D01*
X366103Y-19027904D02*
X351474Y-19039417D01*
X351474Y-19039417D02*
X333044Y-19025312D01*
X333044Y-19025312D02*
X286765Y-18984778D01*
X286765Y-18984778D02*
X215533Y-18920482D01*
X215533Y-18920482D02*
X122245Y-18835096D01*
X122245Y-18835096D02*
X9797Y-18731286D01*
X9797Y-18731286D02*
X-118913Y-18611724D01*
X-118913Y-18611724D02*
X-260989Y-18479077D01*
X-260989Y-18479077D02*
X-413534Y-18336015D01*
X-413534Y-18336015D02*
X-489522Y-18264525D01*
X-489522Y-18264525D02*
X-647443Y-18115783D01*
X-647443Y-18115783D02*
X-797219Y-17974676D01*
X-797219Y-17974676D02*
X-935801Y-17844080D01*
X-935801Y-17844080D02*
X-1060137Y-17726873D01*
X-1060137Y-17726873D02*
X-1167178Y-17625929D01*
X-1167178Y-17625929D02*
X-1253872Y-17544127D01*
X-1253872Y-17544127D02*
X-1317169Y-17484343D01*
X-1317169Y-17484343D02*
X-1354018Y-17449453D01*
X-1354018Y-17449453D02*
X-1361008Y-17442785D01*
X-1361008Y-17442785D02*
X-1409684Y-17395938D01*
X-1409684Y-17395938D02*
X-162138Y-16218475D01*
X-162138Y-16218475D02*
X34558Y-16032856D01*
X34558Y-16032856D02*
X224845Y-15853340D01*
X224845Y-15853340D02*
X406114Y-15682385D01*
X406114Y-15682385D02*
X575757Y-15522447D01*
X575757Y-15522447D02*
X731164Y-15375984D01*
X731164Y-15375984D02*
X869728Y-15245455D01*
X869728Y-15245455D02*
X988840Y-15133318D01*
X988840Y-15133318D02*
X1085890Y-15042029D01*
X1085890Y-15042029D02*
X1158271Y-14974047D01*
X1158271Y-14974047D02*
X1203373Y-14931829D01*
X1203373Y-14931829D02*
X1212079Y-14923737D01*
X1212079Y-14923737D02*
X1338749Y-14806462D01*
X1338749Y-14806462D02*
X2212694Y-15630784D01*
X2212694Y-15630784D02*
X3086639Y-16455105D01*
X3086639Y-16455105D02*
X3405986Y-16151995D01*
X3405986Y-16151995D02*
X3501491Y-16061404D01*
X3501491Y-16061404D02*
X3621067Y-15948071D01*
X3621067Y-15948071D02*
X3758023Y-15818335D01*
X3758023Y-15818335D02*
X3905665Y-15678533D01*
X3905665Y-15678533D02*
X4057300Y-15535003D01*
X4057300Y-15535003D02*
X4206235Y-15394084D01*
X4206235Y-15394084D02*
X4275667Y-15328412D01*
X4275667Y-15328412D02*
X4826000Y-14807939D01*
X4826000Y-14807939D02*
X7847542Y-14807011D01*
X7847542Y-14807011D02*
X10869084Y-14806084D01*
X10869084Y-14806084D02*
X10869084Y-16478250D01*
X10869084Y-16478250D02*
X10869084Y-16478250D01*
G36*
X10869084Y-16478250D02*
G01*
X3082600Y-16478250D01*
X1726130Y-17758834D01*
X1524366Y-17949119D01*
X1331270Y-18130860D01*
X1149071Y-18301978D01*
X980000Y-18460396D01*
X826286Y-18604039D01*
X690157Y-18730827D01*
X573845Y-18838685D01*
X479579Y-18925535D01*
X409589Y-18989301D01*
X366103Y-19027904D01*
X351474Y-19039417D01*
X333044Y-19025312D01*
X286765Y-18984778D01*
X215533Y-18920482D01*
X122245Y-18835096D01*
X9797Y-18731286D01*
X-118913Y-18611724D01*
X-260989Y-18479077D01*
X-413534Y-18336015D01*
X-489522Y-18264525D01*
X-647443Y-18115783D01*
X-797219Y-17974676D01*
X-935801Y-17844080D01*
X-1060137Y-17726873D01*
X-1167178Y-17625929D01*
X-1253872Y-17544127D01*
X-1317169Y-17484343D01*
X-1354018Y-17449453D01*
X-1361008Y-17442785D01*
X-1409684Y-17395938D01*
X-162138Y-16218475D01*
X34558Y-16032856D01*
X224845Y-15853340D01*
X406114Y-15682385D01*
X575757Y-15522447D01*
X731164Y-15375984D01*
X869728Y-15245455D01*
X988840Y-15133318D01*
X1085890Y-15042029D01*
X1158271Y-14974047D01*
X1203373Y-14931829D01*
X1212079Y-14923737D01*
X1338749Y-14806462D01*
X2212694Y-15630784D01*
X3086639Y-16455105D01*
X3405986Y-16151995D01*
X3501491Y-16061404D01*
X3621067Y-15948071D01*
X3758023Y-15818335D01*
X3905665Y-15678533D01*
X4057300Y-15535003D01*
X4206235Y-15394084D01*
X4275667Y-15328412D01*
X4826000Y-14807939D01*
X7847542Y-14807011D01*
X10869084Y-14806084D01*
X10869084Y-16478250D01*
G37*
X10869084Y-16478250D02*
X3082600Y-16478250D01*
X1726130Y-17758834D01*
X1524366Y-17949119D01*
X1331270Y-18130860D01*
X1149071Y-18301978D01*
X980000Y-18460396D01*
X826286Y-18604039D01*
X690157Y-18730827D01*
X573845Y-18838685D01*
X479579Y-18925535D01*
X409589Y-18989301D01*
X366103Y-19027904D01*
X351474Y-19039417D01*
X333044Y-19025312D01*
X286765Y-18984778D01*
X215533Y-18920482D01*
X122245Y-18835096D01*
X9797Y-18731286D01*
X-118913Y-18611724D01*
X-260989Y-18479077D01*
X-413534Y-18336015D01*
X-489522Y-18264525D01*
X-647443Y-18115783D01*
X-797219Y-17974676D01*
X-935801Y-17844080D01*
X-1060137Y-17726873D01*
X-1167178Y-17625929D01*
X-1253872Y-17544127D01*
X-1317169Y-17484343D01*
X-1354018Y-17449453D01*
X-1361008Y-17442785D01*
X-1409684Y-17395938D01*
X-162138Y-16218475D01*
X34558Y-16032856D01*
X224845Y-15853340D01*
X406114Y-15682385D01*
X575757Y-15522447D01*
X731164Y-15375984D01*
X869728Y-15245455D01*
X988840Y-15133318D01*
X1085890Y-15042029D01*
X1158271Y-14974047D01*
X1203373Y-14931829D01*
X1212079Y-14923737D01*
X1338749Y-14806462D01*
X2212694Y-15630784D01*
X3086639Y-16455105D01*
X3405986Y-16151995D01*
X3501491Y-16061404D01*
X3621067Y-15948071D01*
X3758023Y-15818335D01*
X3905665Y-15678533D01*
X4057300Y-15535003D01*
X4206235Y-15394084D01*
X4275667Y-15328412D01*
X4826000Y-14807939D01*
X7847542Y-14807011D01*
X10869084Y-14806084D01*
X10869084Y-16478250D01*
X3360209Y-24713263D02*
X6371167Y-24714442D01*
X6371167Y-24714442D02*
X7164917Y-25465107D01*
X7164917Y-25465107D02*
X7321376Y-25613159D01*
X7321376Y-25613159D02*
X7470892Y-25754805D01*
X7470892Y-25754805D02*
X7610174Y-25886917D01*
X7610174Y-25886917D02*
X7735933Y-26006367D01*
X7735933Y-26006367D02*
X7844880Y-26110028D01*
X7844880Y-26110028D02*
X7933726Y-26194773D01*
X7933726Y-26194773D02*
X7999181Y-26257473D01*
X7999181Y-26257473D02*
X8037957Y-26295002D01*
X8037957Y-26295002D02*
X8043022Y-26300011D01*
X8043022Y-26300011D02*
X8127378Y-26384250D01*
X8127378Y-26384250D02*
X349250Y-26384250D01*
X349250Y-26384250D02*
X349250Y-24712084D01*
X349250Y-24712084D02*
X3360209Y-24713263D01*
X3360209Y-24713263D02*
X3360209Y-24713263D01*
G36*
X3360209Y-24713263D02*
G01*
X6371167Y-24714442D01*
X7164917Y-25465107D01*
X7321376Y-25613159D01*
X7470892Y-25754805D01*
X7610174Y-25886917D01*
X7735933Y-26006367D01*
X7844880Y-26110028D01*
X7933726Y-26194773D01*
X7999181Y-26257473D01*
X8037957Y-26295002D01*
X8043022Y-26300011D01*
X8127378Y-26384250D01*
X349250Y-26384250D01*
X349250Y-24712084D01*
X3360209Y-24713263D01*
G37*
X3360209Y-24713263D02*
X6371167Y-24714442D01*
X7164917Y-25465107D01*
X7321376Y-25613159D01*
X7470892Y-25754805D01*
X7610174Y-25886917D01*
X7735933Y-26006367D01*
X7844880Y-26110028D01*
X7933726Y-26194773D01*
X7999181Y-26257473D01*
X8037957Y-26295002D01*
X8043022Y-26300011D01*
X8127378Y-26384250D01*
X349250Y-26384250D01*
X349250Y-24712084D01*
X3360209Y-24713263D01*
X11842750Y-13895917D02*
X5820834Y-13895527D01*
X5820834Y-13895527D02*
X4953000Y-13076818D01*
X4953000Y-13076818D02*
X4792359Y-12925088D01*
X4792359Y-12925088D02*
X4641112Y-12781880D01*
X4641112Y-12781880D02*
X4502041Y-12649850D01*
X4502041Y-12649850D02*
X4377926Y-12531656D01*
X4377926Y-12531656D02*
X4271549Y-12429955D01*
X4271549Y-12429955D02*
X4185691Y-12347404D01*
X4185691Y-12347404D02*
X4123131Y-12286659D01*
X4123131Y-12286659D02*
X4086653Y-12250379D01*
X4086653Y-12250379D02*
X4078111Y-12240929D01*
X4078111Y-12240929D02*
X4098191Y-12239151D01*
X4098191Y-12239151D02*
X4158517Y-12237424D01*
X4158517Y-12237424D02*
X4257004Y-12235757D01*
X4257004Y-12235757D02*
X4391565Y-12234160D01*
X4391565Y-12234160D02*
X4560114Y-12232641D01*
X4560114Y-12232641D02*
X4760564Y-12231209D01*
X4760564Y-12231209D02*
X4990828Y-12229875D01*
X4990828Y-12229875D02*
X5248821Y-12228647D01*
X5248821Y-12228647D02*
X5532456Y-12227534D01*
X5532456Y-12227534D02*
X5839647Y-12226546D01*
X5839647Y-12226546D02*
X6168306Y-12225692D01*
X6168306Y-12225692D02*
X6516348Y-12224982D01*
X6516348Y-12224982D02*
X6881687Y-12224424D01*
X6881687Y-12224424D02*
X7262235Y-12224027D01*
X7262235Y-12224027D02*
X7655907Y-12223802D01*
X7655907Y-12223802D02*
X7956903Y-12223750D01*
X7956903Y-12223750D02*
X11842750Y-12223750D01*
X11842750Y-12223750D02*
X11842750Y-13895917D01*
X11842750Y-13895917D02*
X11842750Y-13895917D01*
G36*
X11842750Y-13895917D02*
G01*
X5820834Y-13895527D01*
X4953000Y-13076818D01*
X4792359Y-12925088D01*
X4641112Y-12781880D01*
X4502041Y-12649850D01*
X4377926Y-12531656D01*
X4271549Y-12429955D01*
X4185691Y-12347404D01*
X4123131Y-12286659D01*
X4086653Y-12250379D01*
X4078111Y-12240929D01*
X4098191Y-12239151D01*
X4158517Y-12237424D01*
X4257004Y-12235757D01*
X4391565Y-12234160D01*
X4560114Y-12232641D01*
X4760564Y-12231209D01*
X4990828Y-12229875D01*
X5248821Y-12228647D01*
X5532456Y-12227534D01*
X5839647Y-12226546D01*
X6168306Y-12225692D01*
X6516348Y-12224982D01*
X6881687Y-12224424D01*
X7262235Y-12224027D01*
X7655907Y-12223802D01*
X7956903Y-12223750D01*
X11842750Y-12223750D01*
X11842750Y-13895917D01*
G37*
X11842750Y-13895917D02*
X5820834Y-13895527D01*
X4953000Y-13076818D01*
X4792359Y-12925088D01*
X4641112Y-12781880D01*
X4502041Y-12649850D01*
X4377926Y-12531656D01*
X4271549Y-12429955D01*
X4185691Y-12347404D01*
X4123131Y-12286659D01*
X4086653Y-12250379D01*
X4078111Y-12240929D01*
X4098191Y-12239151D01*
X4158517Y-12237424D01*
X4257004Y-12235757D01*
X4391565Y-12234160D01*
X4560114Y-12232641D01*
X4760564Y-12231209D01*
X4990828Y-12229875D01*
X5248821Y-12228647D01*
X5532456Y-12227534D01*
X5839647Y-12226546D01*
X6168306Y-12225692D01*
X6516348Y-12224982D01*
X6881687Y-12224424D01*
X7262235Y-12224027D01*
X7655907Y-12223802D01*
X7956903Y-12223750D01*
X11842750Y-12223750D01*
X11842750Y-13895917D01*
X11856122Y-19593256D02*
X11904158Y-19633394D01*
X11904158Y-19633394D02*
X11975767Y-19696388D01*
X11975767Y-19696388D02*
X12067556Y-19779046D01*
X12067556Y-19779046D02*
X12176132Y-19878173D01*
X12176132Y-19878173D02*
X12298102Y-19990578D01*
X12298102Y-19990578D02*
X12430075Y-20113067D01*
X12430075Y-20113067D02*
X12568657Y-20242448D01*
X12568657Y-20242448D02*
X12710457Y-20375527D01*
X12710457Y-20375527D02*
X12852081Y-20509111D01*
X12852081Y-20509111D02*
X12990137Y-20640007D01*
X12990137Y-20640007D02*
X13121232Y-20765023D01*
X13121232Y-20765023D02*
X13241974Y-20880965D01*
X13241974Y-20880965D02*
X13348971Y-20984641D01*
X13348971Y-20984641D02*
X13438830Y-21072857D01*
X13438830Y-21072857D02*
X13508158Y-21142420D01*
X13508158Y-21142420D02*
X13553563Y-21190138D01*
X13553563Y-21190138D02*
X13571652Y-21212817D01*
X13571652Y-21212817D02*
X13571818Y-21213776D01*
X13571818Y-21213776D02*
X13556113Y-21232326D01*
X13556113Y-21232326D02*
X13512054Y-21277408D01*
X13512054Y-21277408D02*
X13442163Y-21346591D01*
X13442163Y-21346591D02*
X13348960Y-21437445D01*
X13348960Y-21437445D02*
X13234968Y-21547539D01*
X13234968Y-21547539D02*
X13102708Y-21674444D01*
X13102708Y-21674444D02*
X12954702Y-21815729D01*
X12954702Y-21815729D02*
X12793471Y-21968964D01*
X12793471Y-21968964D02*
X12621537Y-22131718D01*
X12621537Y-22131718D02*
X12520084Y-22227465D01*
X12520084Y-22227465D02*
X12332764Y-22404080D01*
X12332764Y-22404080D02*
X12146564Y-22579680D01*
X12146564Y-22579680D02*
X11965079Y-22750874D01*
X11965079Y-22750874D02*
X11791901Y-22914271D01*
X11791901Y-22914271D02*
X11630626Y-23066477D01*
X11630626Y-23066477D02*
X11484847Y-23204102D01*
X11484847Y-23204102D02*
X11358158Y-23323753D01*
X11358158Y-23323753D02*
X11254152Y-23422037D01*
X11254152Y-23422037D02*
X11176424Y-23495564D01*
X11176424Y-23495564D02*
X11160930Y-23510239D01*
X11160930Y-23510239D02*
X10849526Y-23805267D01*
X10849526Y-23805267D02*
X9979523Y-22983384D01*
X9979523Y-22983384D02*
X9818871Y-22831748D01*
X9818871Y-22831748D02*
X9667547Y-22689172D01*
X9667547Y-22689172D02*
X9528321Y-22558248D01*
X9528321Y-22558248D02*
X9403963Y-22441567D01*
X9403963Y-22441567D02*
X9297242Y-22341723D01*
X9297242Y-22341723D02*
X9210928Y-22261307D01*
X9210928Y-22261307D02*
X9147790Y-22202912D01*
X9147790Y-22202912D02*
X9110598Y-22169130D01*
X9110598Y-22169130D02*
X9101419Y-22161500D01*
X9101419Y-22161500D02*
X9084975Y-22175616D01*
X9084975Y-22175616D02*
X9040555Y-22216236D01*
X9040555Y-22216236D02*
X8970932Y-22280764D01*
X8970932Y-22280764D02*
X8878879Y-22366608D01*
X8878879Y-22366608D02*
X8767167Y-22471172D01*
X8767167Y-22471172D02*
X8638571Y-22591863D01*
X8638571Y-22591863D02*
X8495862Y-22726086D01*
X8495862Y-22726086D02*
X8341813Y-22871248D01*
X8341813Y-22871248D02*
X8224768Y-22981709D01*
X8224768Y-22981709D02*
X7356218Y-23801917D01*
X7356218Y-23801917D02*
X1322917Y-23801917D01*
X1322917Y-23801917D02*
X1322917Y-22129750D01*
X1322917Y-22129750D02*
X9102958Y-22129750D01*
X9102958Y-22129750D02*
X10454910Y-20854459D01*
X10454910Y-20854459D02*
X10656567Y-20664533D01*
X10656567Y-20664533D02*
X10849753Y-20483161D01*
X10849753Y-20483161D02*
X11032215Y-20312425D01*
X11032215Y-20312425D02*
X11201699Y-20154409D01*
X11201699Y-20154409D02*
X11355950Y-20011196D01*
X11355950Y-20011196D02*
X11492714Y-19884867D01*
X11492714Y-19884867D02*
X11609737Y-19777506D01*
X11609737Y-19777506D02*
X11704766Y-19691196D01*
X11704766Y-19691196D02*
X11775546Y-19628020D01*
X11775546Y-19628020D02*
X11819824Y-19590059D01*
X11819824Y-19590059D02*
X11835050Y-19579167D01*
X11835050Y-19579167D02*
X11856122Y-19593256D01*
X11856122Y-19593256D02*
X11856122Y-19593256D01*
G36*
X11856122Y-19593256D02*
G01*
X11904158Y-19633394D01*
X11975767Y-19696388D01*
X12067556Y-19779046D01*
X12176132Y-19878173D01*
X12298102Y-19990578D01*
X12430075Y-20113067D01*
X12568657Y-20242448D01*
X12710457Y-20375527D01*
X12852081Y-20509111D01*
X12990137Y-20640007D01*
X13121232Y-20765023D01*
X13241974Y-20880965D01*
X13348971Y-20984641D01*
X13438830Y-21072857D01*
X13508158Y-21142420D01*
X13553563Y-21190138D01*
X13571652Y-21212817D01*
X13571818Y-21213776D01*
X13556113Y-21232326D01*
X13512054Y-21277408D01*
X13442163Y-21346591D01*
X13348960Y-21437445D01*
X13234968Y-21547539D01*
X13102708Y-21674444D01*
X12954702Y-21815729D01*
X12793471Y-21968964D01*
X12621537Y-22131718D01*
X12520084Y-22227465D01*
X12332764Y-22404080D01*
X12146564Y-22579680D01*
X11965079Y-22750874D01*
X11791901Y-22914271D01*
X11630626Y-23066477D01*
X11484847Y-23204102D01*
X11358158Y-23323753D01*
X11254152Y-23422037D01*
X11176424Y-23495564D01*
X11160930Y-23510239D01*
X10849526Y-23805267D01*
X9979523Y-22983384D01*
X9818871Y-22831748D01*
X9667547Y-22689172D01*
X9528321Y-22558248D01*
X9403963Y-22441567D01*
X9297242Y-22341723D01*
X9210928Y-22261307D01*
X9147790Y-22202912D01*
X9110598Y-22169130D01*
X9101419Y-22161500D01*
X9084975Y-22175616D01*
X9040555Y-22216236D01*
X8970932Y-22280764D01*
X8878879Y-22366608D01*
X8767167Y-22471172D01*
X8638571Y-22591863D01*
X8495862Y-22726086D01*
X8341813Y-22871248D01*
X8224768Y-22981709D01*
X7356218Y-23801917D01*
X1322917Y-23801917D01*
X1322917Y-22129750D01*
X9102958Y-22129750D01*
X10454910Y-20854459D01*
X10656567Y-20664533D01*
X10849753Y-20483161D01*
X11032215Y-20312425D01*
X11201699Y-20154409D01*
X11355950Y-20011196D01*
X11492714Y-19884867D01*
X11609737Y-19777506D01*
X11704766Y-19691196D01*
X11775546Y-19628020D01*
X11819824Y-19590059D01*
X11835050Y-19579167D01*
X11856122Y-19593256D01*
G37*
X11856122Y-19593256D02*
X11904158Y-19633394D01*
X11975767Y-19696388D01*
X12067556Y-19779046D01*
X12176132Y-19878173D01*
X12298102Y-19990578D01*
X12430075Y-20113067D01*
X12568657Y-20242448D01*
X12710457Y-20375527D01*
X12852081Y-20509111D01*
X12990137Y-20640007D01*
X13121232Y-20765023D01*
X13241974Y-20880965D01*
X13348971Y-20984641D01*
X13438830Y-21072857D01*
X13508158Y-21142420D01*
X13553563Y-21190138D01*
X13571652Y-21212817D01*
X13571818Y-21213776D01*
X13556113Y-21232326D01*
X13512054Y-21277408D01*
X13442163Y-21346591D01*
X13348960Y-21437445D01*
X13234968Y-21547539D01*
X13102708Y-21674444D01*
X12954702Y-21815729D01*
X12793471Y-21968964D01*
X12621537Y-22131718D01*
X12520084Y-22227465D01*
X12332764Y-22404080D01*
X12146564Y-22579680D01*
X11965079Y-22750874D01*
X11791901Y-22914271D01*
X11630626Y-23066477D01*
X11484847Y-23204102D01*
X11358158Y-23323753D01*
X11254152Y-23422037D01*
X11176424Y-23495564D01*
X11160930Y-23510239D01*
X10849526Y-23805267D01*
X9979523Y-22983384D01*
X9818871Y-22831748D01*
X9667547Y-22689172D01*
X9528321Y-22558248D01*
X9403963Y-22441567D01*
X9297242Y-22341723D01*
X9210928Y-22261307D01*
X9147790Y-22202912D01*
X9110598Y-22169130D01*
X9101419Y-22161500D01*
X9084975Y-22175616D01*
X9040555Y-22216236D01*
X8970932Y-22280764D01*
X8878879Y-22366608D01*
X8767167Y-22471172D01*
X8638571Y-22591863D01*
X8495862Y-22726086D01*
X8341813Y-22871248D01*
X8224768Y-22981709D01*
X7356218Y-23801917D01*
X1322917Y-23801917D01*
X1322917Y-22129750D01*
X9102958Y-22129750D01*
X10454910Y-20854459D01*
X10656567Y-20664533D01*
X10849753Y-20483161D01*
X11032215Y-20312425D01*
X11201699Y-20154409D01*
X11355950Y-20011196D01*
X11492714Y-19884867D01*
X11609737Y-19777506D01*
X11704766Y-19691196D01*
X11775546Y-19628020D01*
X11819824Y-19590059D01*
X11835050Y-19579167D01*
X11856122Y-19593256D01*
%TD*%
D11*
%TO.C,S20*%
X50822091Y19390601D03*
D12*
X56322091Y19390601D03*
D11*
X61822091Y19390601D03*
D13*
X61322091Y15590601D03*
X51322091Y15590601D03*
X56322091Y13490601D03*
X56322091Y13490601D03*
%TD*%
D14*
%TO.C,S25*%
X70322091Y22140601D03*
X75322091Y24340601D03*
X75322091Y24340601D03*
X80322091Y22140601D03*
D11*
X69822091Y18390601D03*
D12*
X75322091Y18390601D03*
D11*
X80822091Y18390601D03*
D15*
X72047091Y24340601D03*
X83597091Y22140601D03*
%TD*%
D14*
%TO.C,S7*%
X12551349Y22111251D03*
X17950380Y21280309D03*
D11*
X19403914Y17787497D03*
X8778730Y14940487D03*
D12*
X14091322Y16363992D03*
D14*
X8291121Y18692119D03*
X12551349Y22111251D03*
D16*
X9387942Y21263618D03*
X21113787Y22127941D03*
%TD*%
D11*
%TO.C,S24*%
X50822091Y53590601D03*
D12*
X56322091Y53590601D03*
D11*
X61822091Y53590601D03*
D13*
X61322091Y49790601D03*
X51322091Y49790601D03*
X56322091Y47690601D03*
X56322091Y47690601D03*
%TD*%
D14*
%TO.C,S19*%
X56322091Y25340601D03*
D11*
X50822091Y19390601D03*
D14*
X51322091Y23140601D03*
X56322091Y25340601D03*
D12*
X56322091Y19390601D03*
D14*
X61322091Y23140601D03*
D11*
X61822091Y19390601D03*
D15*
X53047091Y25340601D03*
X64597091Y23140601D03*
%TD*%
D12*
%TO.C,S26*%
X75322091Y18390601D03*
D11*
X69822091Y18390601D03*
X80822091Y18390601D03*
D13*
X70322091Y14590601D03*
X80322091Y14590601D03*
X75322091Y12490601D03*
X75322091Y12490601D03*
%TD*%
D17*
%TO.C,REF\u002A\u002A*%
X47022091Y5015601D03*
X47022091Y-6234399D03*
D18*
X57132091Y5015601D03*
X57132091Y-6234399D03*
X54592091Y5015601D03*
X54592091Y-6234399D03*
X52052091Y-6234399D03*
X52052091Y5015601D03*
X49512091Y-6234399D03*
X49512091Y5015601D03*
X59522091Y6240601D03*
X59522091Y-7459399D03*
X59522091Y4390601D03*
X59522091Y-5609399D03*
%TD*%
D12*
%TO.C,S14*%
X34655082Y20571380D03*
D11*
X29176011Y20092023D03*
X40134153Y21050737D03*
D13*
X39967247Y17221619D03*
X30005300Y16350061D03*
X35169301Y14693831D03*
X35169301Y14693831D03*
%TD*%
D14*
%TO.C,S33*%
X94097082Y-5227085D03*
X97698860Y-9334053D03*
X94097082Y-5227085D03*
D12*
X91582503Y-10619616D03*
D11*
X86597810Y-8295216D03*
D14*
X88635783Y-5107870D03*
D11*
X96567196Y-12944016D03*
D19*
X91128924Y-3843010D03*
X100667018Y-10718128D03*
%TD*%
D11*
%TO.C,S3*%
X-16302226Y13451558D03*
D14*
X-7595162Y20415718D03*
D12*
X-11101874Y15242183D03*
D14*
X-17050347Y17160037D03*
D11*
X-5901522Y17032808D03*
D14*
X-13039005Y20868019D03*
X-13039005Y20868019D03*
D20*
X-16135578Y19801783D03*
X-4498588Y21481954D03*
%TD*%
D21*
%TO.C,D11*%
X64572091Y34840601D03*
X64572091Y38140601D03*
%TD*%
D22*
%TO.C,D3*%
X-8331374Y32536382D03*
X-9405748Y35656594D03*
%TD*%
D11*
%TO.C,S30*%
X69822091Y52590601D03*
D12*
X75322091Y52590601D03*
D11*
X80822091Y52590601D03*
D13*
X70322091Y48790601D03*
X80322091Y48790601D03*
X75322091Y46690601D03*
X75322091Y46690601D03*
%TD*%
D12*
%TO.C,S34*%
X91582503Y-10619616D03*
D11*
X96567196Y-12944016D03*
X86597810Y-8295216D03*
D13*
X85445015Y-11950494D03*
X94508093Y-16176677D03*
X89089055Y-15966832D03*
X89089055Y-15966832D03*
%TD*%
D21*
%TO.C,D10*%
X64572091Y17740601D03*
X64572091Y21040601D03*
%TD*%
D23*
%TO.C,D16*%
X79863928Y-7338434D03*
X80718030Y-4150878D03*
%TD*%
D11*
%TO.C,S18*%
X26195285Y54161882D03*
D12*
X31674356Y54641239D03*
D11*
X37153427Y55120596D03*
D13*
X36986521Y51291478D03*
X27024574Y50419920D03*
X32188575Y48763690D03*
X32188575Y48763690D03*
%TD*%
D11*
%TO.C,S2*%
X-334307Y864441D03*
X-10735011Y-2716809D03*
D12*
X-5534659Y-926184D03*
D13*
X430093Y-2891314D03*
X-9025093Y-6146995D03*
X-3613807Y-6504744D03*
X-3613807Y-6504744D03*
%TD*%
D11*
%TO.C,S16*%
X27685648Y37126952D03*
D12*
X33164719Y37606309D03*
D11*
X38643790Y38085666D03*
D13*
X28514937Y33384990D03*
X38476884Y34256548D03*
X33678938Y31728760D03*
X33678938Y31728760D03*
%TD*%
D24*
%TO.C,D18*%
X115144598Y-26951474D03*
X117037400Y-24248272D03*
%TD*%
D25*
%TO.C,D7*%
X43017495Y19646694D03*
X42729881Y22934136D03*
%TD*%
D14*
%TO.C,S11*%
X3699738Y55145915D03*
D11*
X10552303Y50822161D03*
D12*
X5239711Y49398656D03*
D14*
X9098769Y54314973D03*
D11*
X-72881Y47975151D03*
D14*
X3699738Y55145915D03*
X-560490Y51726783D03*
D16*
X536331Y54298282D03*
X12262176Y55162605D03*
%TD*%
D12*
%TO.C,S12*%
X5239711Y49398656D03*
D11*
X-72881Y47975151D03*
X10552303Y50822161D03*
D13*
X11052853Y47022233D03*
X1393594Y44434043D03*
X6766743Y43699694D03*
X6766743Y43699694D03*
%TD*%
D14*
%TO.C,S21*%
X61322091Y40240601D03*
D11*
X61822091Y36490601D03*
D12*
X56322091Y36490601D03*
D14*
X56322091Y42440601D03*
D11*
X50822091Y36490601D03*
D14*
X51322091Y40240601D03*
X56322091Y42440601D03*
D15*
X53047091Y42440601D03*
X64597091Y40240601D03*
%TD*%
D21*
%TO.C,D14*%
X83572091Y33840601D03*
X83572091Y37140601D03*
%TD*%
D11*
%TO.C,S35*%
X113838331Y-24022537D03*
D14*
X112745775Y-15993912D03*
X112745775Y-15993912D03*
X107388146Y-14928165D03*
D12*
X109332995Y-20867867D03*
D14*
X115579667Y-20663929D03*
D11*
X104827659Y-17713197D03*
D26*
X110063052Y-14115450D03*
X118262390Y-22542392D03*
%TD*%
D27*
%TO.C,D5*%
X18061454Y33422803D03*
X17207353Y36610359D03*
%TD*%
D12*
%TO.C,S22*%
X56322091Y36490601D03*
D11*
X50822091Y36490601D03*
X61822091Y36490601D03*
D13*
X51322091Y32690601D03*
X61322091Y32690601D03*
X56322091Y30590601D03*
X56322091Y30590601D03*
%TD*%
D21*
%TO.C,D13*%
X83572091Y16740601D03*
X83572091Y20040601D03*
%TD*%
D11*
%TO.C,S9*%
X14978108Y34304829D03*
D14*
X3865315Y35209451D03*
X8125543Y38628583D03*
D12*
X9665516Y32881324D03*
D11*
X4352924Y31457819D03*
D14*
X8125543Y38628583D03*
X13524574Y37797641D03*
D16*
X4962136Y37780950D03*
X16687981Y38645273D03*
%TD*%
D25*
%TO.C,D9*%
X40036769Y53716553D03*
X39749155Y57003995D03*
%TD*%
D22*
%TO.C,D1*%
X2803057Y199647D03*
X1728683Y3319859D03*
%TD*%
D11*
%TO.C,S15*%
X38643790Y38085666D03*
D12*
X33164719Y37606309D03*
D14*
X37818858Y41777818D03*
X32646142Y43533667D03*
X27856911Y40906260D03*
X32646142Y43533667D03*
D11*
X27685648Y37126952D03*
D28*
X29383605Y43248232D03*
X41081396Y42063253D03*
%TD*%
D21*
%TO.C,D12*%
X64572091Y51940601D03*
X64572091Y55240601D03*
%TD*%
D11*
%TO.C,S6*%
X-11468737Y33201176D03*
D12*
X-16669089Y31410551D03*
D11*
X-21869441Y29619926D03*
D13*
X-10704337Y29445421D03*
X-20159523Y26189740D03*
X-14748237Y25831991D03*
X-14748237Y25831991D03*
%TD*%
D14*
%TO.C,S27*%
X75322091Y41440601D03*
D11*
X80822091Y35490601D03*
D14*
X80322091Y39240601D03*
X70322091Y39240601D03*
X75322091Y41440601D03*
D12*
X75322091Y35490601D03*
D11*
X69822091Y35490601D03*
D15*
X72047091Y41440601D03*
X83597091Y39240601D03*
%TD*%
D14*
%TO.C,S31*%
X68463033Y1306918D03*
X78122292Y-1281272D03*
X73862064Y2137860D03*
D12*
X72322091Y-3609399D03*
D14*
X73862064Y2137860D03*
D11*
X67009499Y-2185894D03*
X77634683Y-5032904D03*
D29*
X70698657Y2985492D03*
X81285699Y-2128905D03*
%TD*%
D11*
%TO.C,S10*%
X4352924Y31457819D03*
D12*
X9665516Y32881324D03*
D11*
X14978108Y34304829D03*
D13*
X5819399Y27916711D03*
X15478658Y30504901D03*
X11192548Y27182362D03*
X11192548Y27182362D03*
%TD*%
D22*
%TO.C,D2*%
X-2764159Y16368015D03*
X-3838533Y19488227D03*
%TD*%
D21*
%TO.C,D15*%
X83572091Y50940601D03*
X83572091Y54240601D03*
%TD*%
D11*
%TO.C,S4*%
X-5901522Y17032808D03*
X-16302226Y13451558D03*
D12*
X-11101874Y15242183D03*
D13*
X-14592308Y10021372D03*
X-5137122Y13277053D03*
X-9181022Y9663623D03*
X-9181022Y9663623D03*
%TD*%
D30*
%TO.C,D17*%
X98362222Y-15601625D03*
X99756862Y-12610809D03*
%TD*%
D14*
%TO.C,S5*%
X-18606220Y37036387D03*
D11*
X-11468737Y33201176D03*
D14*
X-13162377Y36584086D03*
X-18606220Y37036387D03*
D11*
X-21869441Y29619926D03*
D14*
X-22617562Y33328405D03*
D12*
X-16669089Y31410551D03*
D20*
X-21702793Y35970151D03*
X-10065803Y37650322D03*
%TD*%
D14*
%TO.C,S13*%
X39309221Y24742889D03*
X34136505Y26498738D03*
X34136505Y26498738D03*
D11*
X40134153Y21050737D03*
D14*
X29347274Y23871331D03*
D12*
X34655082Y20571380D03*
D11*
X29176011Y20092023D03*
D28*
X30873968Y26213303D03*
X42571759Y25028324D03*
%TD*%
D27*
%TO.C,D4*%
X22487261Y16905471D03*
X21633159Y20093027D03*
%TD*%
D12*
%TO.C,S36*%
X109332995Y-20867867D03*
D11*
X113838331Y-24022537D03*
X104827659Y-17713197D03*
D13*
X111249165Y-26848527D03*
X103057644Y-21112763D03*
X105948894Y-25700864D03*
X105948894Y-25700864D03*
%TD*%
D11*
%TO.C,S28*%
X69822091Y35490601D03*
D12*
X75322091Y35490601D03*
D11*
X80822091Y35490601D03*
D13*
X70322091Y31690601D03*
X80322091Y31690601D03*
X75322091Y29590601D03*
X75322091Y29590601D03*
%TD*%
D12*
%TO.C,S32*%
X72322091Y-3609399D03*
D11*
X67009499Y-2185894D03*
X77634683Y-5032904D03*
D13*
X66508949Y-5985822D03*
X76168208Y-8574012D03*
X70795059Y-9308361D03*
X70795059Y-9308361D03*
%TD*%
D11*
%TO.C,S23*%
X61822091Y53590601D03*
D14*
X51322091Y57340601D03*
D12*
X56322091Y53590601D03*
D14*
X61322091Y57340601D03*
D11*
X50822091Y53590601D03*
D14*
X56322091Y59540601D03*
X56322091Y59540601D03*
D15*
X53047091Y59540601D03*
X64597091Y57340601D03*
%TD*%
D14*
%TO.C,S1*%
X-11483132Y991670D03*
X-2027947Y4247351D03*
D11*
X-334307Y864441D03*
D14*
X-7471790Y4699652D03*
D11*
X-10735011Y-2716809D03*
D12*
X-5534659Y-926184D03*
D14*
X-7471790Y4699652D03*
D20*
X-10568363Y3633416D03*
X1068627Y5313587D03*
%TD*%
D12*
%TO.C,S8*%
X14091322Y16363992D03*
D11*
X8778730Y14940487D03*
X19403914Y17787497D03*
D13*
X10245205Y11399379D03*
X19904464Y13987569D03*
X15618354Y10665030D03*
X15618354Y10665030D03*
%TD*%
D12*
%TO.C,S29*%
X75322091Y52590601D03*
D11*
X80822091Y52590601D03*
D14*
X75322091Y58540601D03*
X80322091Y56340601D03*
X75322091Y58540601D03*
X70322091Y56340601D03*
D11*
X69822091Y52590601D03*
D15*
X72047091Y58540601D03*
X83597091Y56340601D03*
%TD*%
D25*
%TO.C,D8*%
X41527132Y36681623D03*
X41239518Y39969065D03*
%TD*%
D27*
%TO.C,D6*%
X13635650Y49940135D03*
X12781548Y53127691D03*
%TD*%
D31*
%TO.C,MCU1*%
X105643844Y60333370D03*
D32*
X104115234Y58304835D03*
X102586624Y56276301D03*
X101058014Y54247767D03*
X99529404Y52219233D03*
X98000793Y50190699D03*
X96472183Y48162164D03*
X94943573Y46133630D03*
X93414963Y44105096D03*
X91886353Y42076562D03*
X90357743Y40048028D03*
X88829133Y38019493D03*
X117815049Y51161709D03*
X116286439Y49133174D03*
X114757829Y47104640D03*
X113229219Y45076106D03*
X111700609Y43047572D03*
X110171999Y41019038D03*
X108643389Y38990503D03*
X107114778Y36961969D03*
X105586168Y34933435D03*
X104057558Y32904901D03*
X102528948Y30876367D03*
X101000338Y28847832D03*
%TD*%
D11*
%TO.C,S17*%
X37153427Y55120596D03*
D14*
X31155779Y60568597D03*
D11*
X26195285Y54161882D03*
D12*
X31674356Y54641239D03*
D14*
X26366548Y57941190D03*
X31155779Y60568597D03*
X36328495Y58812748D03*
D28*
X27893242Y60283162D03*
X39591033Y59098183D03*
%TD*%
M02*
