M48
; DRILL file {KiCad 5.99.0-unknown-fa82fcb809~131~ubuntu20.04.1} date Fri Aug 27 12:16:17 2021
; FORMAT={-:-/ absolute / metric / decimal}
; #@! TF.CreationDate,2021-08-27T12:16:17+02:00
; #@! TF.GenerationSoftware,Kicad,Pcbnew,5.99.0-unknown-fa82fcb809~131~ubuntu20.04.1
; #@! TF.FileFunction,Plated,1,2,PTH
FMAT,2
METRIC
; #@! TA.AperFunction,Plated,PTH,ViaDrill
T1C0.300
; #@! TA.AperFunction,Plated,PTH,ComponentDrill
T2C0.300
; #@! TA.AperFunction,Plated,PTH,ViaDrill
T3C0.400
; #@! TA.AperFunction,Plated,PTH,ComponentDrill
T4C0.900
; #@! TA.AperFunction,Plated,PTH,ComponentDrill
T5C1.092
; #@! TA.AperFunction,Plated,PTH,ComponentDrill
T6C1.270
%
G90
G05
T1
X-11.43Y41.91
X11.176Y59.436
X13.462Y19.304
X39.116Y63.5
X64.516Y61.722
X82.042Y2.286
X83.566Y60.706
X102.108Y-6.35
X120.396Y-18.542
T2
X-9.406Y35.657
X-8.331Y32.536
X-3.839Y19.488
X-2.764Y16.368
X1.729Y3.32
X2.803Y0.2
X12.782Y53.128
X13.636Y49.94
X17.207Y36.61
X18.061Y33.423
X21.633Y20.093
X22.487Y16.905
X39.749Y57.004
X40.037Y53.717
X41.24Y39.969
X41.527Y36.682
X42.73Y22.934
X43.017Y19.647
X64.572Y55.241
X64.572Y51.941
X64.572Y38.141
X64.572Y34.841
X64.572Y21.041
X64.572Y17.741
X79.864Y-7.338
X80.718Y-4.151
X83.572Y54.241
X83.572Y50.941
X83.572Y37.141
X83.572Y33.841
X83.572Y20.041
X83.572Y16.741
X98.362Y-15.602
X99.757Y-12.611
X115.145Y-26.951
X117.037Y-24.248
T3
X-17.526Y34.29
X-11.938Y18.034
X-6.096Y2.032
X4.572Y52.324
X8.89Y35.814
X31.496Y57.658
X32.766Y40.64
X34.544Y23.622
X56.388Y56.134
X56.388Y39.116
X56.388Y22.098
X73.152Y-0.762
X75.438Y55.372
X75.438Y38.354
X75.438Y21.336
X92.71Y-7.874
X110.998Y-18.542
T4
X49.512Y5.016
X49.512Y-6.234
X52.052Y5.016
X52.052Y-6.234
X54.592Y5.016
X54.592Y-6.234
X57.132Y5.016
X57.132Y-6.234
X59.522Y6.241
X59.522Y4.391
X59.522Y-5.609
X59.522Y-7.459
T5
X88.829Y38.019
X90.358Y40.048
X91.886Y42.077
X93.415Y44.105
X94.944Y46.134
X96.472Y48.162
X98.001Y50.191
X99.529Y52.219
X101.0Y28.848
X101.058Y54.248
X102.529Y30.876
X102.587Y56.276
X104.058Y32.905
X104.115Y58.305
X105.586Y34.933
X105.644Y60.333
X107.115Y36.962
X108.643Y38.991
X110.172Y41.019
X111.701Y43.048
X113.229Y45.076
X114.758Y47.105
X116.286Y49.133
X117.815Y51.162
T6
X-20.16Y26.19
X-14.748Y25.832
X-14.748Y25.832
X-14.592Y10.021
X-10.704Y29.445
X-9.181Y9.664
X-9.181Y9.664
X-9.025Y-6.147
X-5.137Y13.277
X-3.614Y-6.505
X-3.614Y-6.505
X0.43Y-2.891
X1.394Y44.434
X5.819Y27.917
X6.767Y43.7
X6.767Y43.7
X10.245Y11.399
X11.053Y47.022
X11.193Y27.182
X11.193Y27.182
X15.479Y30.505
X15.618Y10.665
X15.618Y10.665
X19.904Y13.988
X27.025Y50.42
X28.515Y33.385
X30.005Y16.35
X32.189Y48.764
X32.189Y48.764
X33.679Y31.729
X33.679Y31.729
X35.169Y14.694
X35.169Y14.694
X36.987Y51.291
X38.477Y34.257
X39.967Y17.222
X51.322Y49.791
X51.322Y32.691
X51.322Y15.591
X56.322Y47.691
X56.322Y47.691
X56.322Y30.591
X56.322Y30.591
X56.322Y13.491
X56.322Y13.491
X61.322Y49.791
X61.322Y32.691
X61.322Y15.591
X66.509Y-5.986
X70.322Y48.791
X70.322Y31.691
X70.322Y14.591
X70.795Y-9.308
X70.795Y-9.308
X75.322Y46.691
X75.322Y46.691
X75.322Y29.591
X75.322Y29.591
X75.322Y12.491
X75.322Y12.491
X76.168Y-8.574
X80.322Y48.791
X80.322Y31.691
X80.322Y14.591
X85.445Y-11.95
X89.089Y-15.967
X89.089Y-15.967
X94.508Y-16.177
X103.058Y-21.113
X105.949Y-25.701
X105.949Y-25.701
X111.249Y-26.849
T0
M30
